<svg xmlns="http://www.w3.org/2000/svg" xmlns:xlink="http://www.w3.org/1999/xlink" width="510" height="275" viewBox="0 0 510 275">
  <defs>
    <linearGradient id="linear-gradient" x1="0.5" y1="0.958" x2="0.5" y2="0.149" gradientUnits="objectBoundingBox">
      <stop offset="0" stop-color="#475eab"/>
      <stop offset="1" stop-color="#038cb7"/>
    </linearGradient>
    <linearGradient id="linear-gradient-2" x1="0.5" y1="-0.193" x2="0.5" y2="3.025" xlink:href="#linear-gradient"/>
    <linearGradient id="linear-gradient-3" x1="0.5" y1="1.392" x2="0.5" y2="0.055" xlink:href="#linear-gradient"/>
    <linearGradient id="linear-gradient-4" x1="0.5" y1="1.576" x2="0.5" y2="0.282" xlink:href="#linear-gradient"/>
  </defs>
  <g id="Vector_Smart_Object2" data-name="Vector Smart Object2" transform="translate(-29.842 -39.449)">
    <path id="Path_3" data-name="Path 3" d="M48.709,314.3S3.545,245.446,52.973,170.9c43.855-66.145,113.05-13.549,152.257-80.854C258.7-1.744,525.532,34.1,491.738,175.316c-16.353,68.338,74.221,70.822,40.528,139.133Z" fill="#ebf3fa"/>
    <g id="Group_2" data-name="Group 2">
      <path id="Path_4" data-name="Path 4" d="M385.806,176.707s-8.158-10.841.506-16.861c0,0,6.259-3.283,11.158-2.678,0,0-7.7,11.277-5.516,12.583s7.674-13.186,7.674-13.186,13.807-.475,18.09,1.929c0,0-12.332,8.89-9.9,9.618s15.7-7.926,15.7-7.926,12.638,2.979,11.47,10.747-5.719,9.905-7.641,9.576-12.968-5.367-13.313-3.794,6.143,7.193,10.9,7.734c0,0-9.626,9.392-15.432,6.144s-6.033-7.835-9.658-9.776-6.81-2.137-5.378-.3,8.079,3.955,9.977,7.871,3.654,6.588-2.481,5.267-15.917-6.494-16.035-11.723Z" fill="#73b865"/>
      <g id="Group_1" data-name="Group 1">
        <path id="Path_5" data-name="Path 5" d="M428.7,170.751s-34.61-3.512-42.892,5.955a25.2,25.2,0,0,1-7.514,9.287l-.951,2.17s6.408-5.978,8.583-6.228C385.925,181.935,383.328,169.4,428.7,170.751Z" fill="#82b378"/>
        <path id="Path_6" data-name="Path 6" d="M378.293,185.994a21.884,21.884,0,0,0-8.922,14.887l1.344.206s3.014-10.051,7.561-13.771S378.293,185.994,378.293,185.994Z" fill="#82b378"/>
      </g>
    </g>
    <g id="Group_4" data-name="Group 4">
      <path id="Path_7" data-name="Path 7" d="M345.782,150.788s-18.088-10.154-9.647-23.935c0,0,6.753-8.462,13.989-10.638,0,0-3.859,20.55,0,21.034s2.653-23.21,2.653-23.21,19.053-9.187,26.53-8.462c0,0-11.818,20.067-7.959,19.583s17.124-20.792,17.124-20.792,19.535-3.626,22.671,7.978-1.93,17.407-4.824,18.133-21.465.484-20.982,2.9,13.024,6.286,20.018,4.11c0,0-7.718,19.1-17.847,18.133s-13.265-7.253-19.536-7.736-10.853,1.209-7.717,2.9,13.747.555,18.812,4.871,9.165,6.976-.241,8.91-26.288.725-29.665-6.528Z" fill="#d2df43"/>
      <g id="Group_3" data-name="Group 3">
        <path id="Path_8" data-name="Path 8" d="M402.217,115.974s-50.647,16.44-56.436,34.815a38.646,38.646,0,0,1-4.823,17.649v3.627s5.306-12.33,8.2-14.023C349.158,158.041,337.823,142.085,402.217,115.974Z" fill="#82b378"/>
        <path id="Path_9" data-name="Path 9" d="M340.958,168.437s-7.811,11.89-3.358,26.363l2.009-.541s-1.951-15.942,2.136-23.959S340.958,168.437,340.958,168.437Z" fill="#82b378"/>
      </g>
    </g>
    <g id="Group_6" data-name="Group 6">
      <path id="Path_10" data-name="Path 10" d="M250.395,155.992s21.05-8.93,13.465-25.057c0,0-6.377-10.094-14.043-13.357,0,0,1.744,22.989-2.543,23.05s-.1-25.757-.1-25.757-19.769-12.382-28.05-12.5c0,0,10.524,23.426,6.354,22.428s-16.251-24.866-16.251-24.866-20.969-6.348-25.808,5.989.01,19.31,3.094,20.457,23.464,3.138,22.643,5.729-15.032,5.306-22.433,2.072c0,0,6.148,21.868,17.366,22.039s15.413-6.337,22.343-6.1,11.747,2.643,8.107,4.117-15.132-1.062-21.2,3.052-10.887,6.531-.813,9.793,28.721,3.988,33.3-3.55Z" fill="#d2df43"/>
      <g id="Group_5" data-name="Group 5">
        <path id="Path_11" data-name="Path 11" d="M192.758,110.984s53.515,24.169,57.636,45.008a42.621,42.621,0,0,0,3.152,19.927l-.438,3.974s-4.324-14.157-7.291-16.363C245.818,163.53,260.169,147.421,192.758,110.984Z" fill="#82b378"/>
        <path id="Path_12" data-name="Path 12" d="M253.547,175.919s7.122,13.979.493,29.3l-2.137-.837s4.065-17.233.556-26.515S253.547,175.919,253.547,175.919Z" fill="#82b378"/>
      </g>
    </g>
    <path id="Path_13" data-name="Path 13" d="M207.219,207.817a23.609,23.609,0,0,1-4.135-10.389s10.293-7.408,4.225-15.2c0,0-4.679-4.676-9.222-5.5,0,0,3.747,12.217,1.436,12.775s-3.2-13.915-3.2-13.915-12.2-4.273-16.691-3.319c0,0,8.548,11.377,6.171,11.348s-11.82-11.454-11.82-11.454-12.113-.862-13.225,6.4,2.36,10.44,4.168,10.682,13.07-1.179,12.942.323-7.481,4.711-11.878,3.87c0,0,5.991,11.071,12.078,9.789s7.561-5.315,11.337-6.039,6.674-.01,4.885,1.233-8.312,1.28-11.093,4.249-5.09,4.866.755,5.4,16.016-1.363,17.572-6l.195-.58a2.35,2.35,0,0,1-.195.58c1.123.5,3.034,3.258,4.384,5.389.2.366.506.869.955,1.549h0c.186.309.335.562.438.739,2.581,4.824,2.5,13.666,2.5,13.666l1.257.191A20.5,20.5,0,0,0,207.219,207.817Z" fill="#73b865"/>
    <g id="Group_15" data-name="Group 15">
      <path id="Path_14" data-name="Path 14" d="M187.365,181.907l100.84-60.518a17.547,17.547,0,0,1,18.064,0l100.84,60.518v98.637L187.365,269.5Z" fill="url(#linear-gradient)"/>
      <rect id="Rectangle_1" data-name="Rectangle 1" width="181.914" height="157.595" transform="translate(206.28 138.205)" fill="url(#linear-gradient-2)"/>
      <g id="Group_10" data-name="Group 10">
        <ellipse id="Ellipse_1" data-name="Ellipse 1" cx="1.871" cy="1.874" rx="1.871" ry="1.874" transform="matrix(0.924, -0.383, 0.382, 0.924, 211.259, 144.066)" fill="#fff"/>
        <path id="Path_15" data-name="Path 15" d="M378.79,145.081a1.87,1.87,0,1,1,1.87,1.875A1.873,1.873,0,0,1,378.79,145.081Z" fill="#fff"/>
        <g id="Group_7" data-name="Group 7">
          <rect id="Rectangle_2" data-name="Rectangle 2" width="166.957" height="0.408" transform="translate(213.703 144.877)" fill="#fff"/>
        </g>
        <g id="Group_8" data-name="Group 8">
          <rect id="Rectangle_3" data-name="Rectangle 3" width="0.407" height="167.366" transform="translate(213.5 144.335)" fill="#fff"/>
        </g>
        <g id="Group_9" data-name="Group 9">
          <rect id="Rectangle_4" data-name="Rectangle 4" width="0.407" height="167.366" transform="translate(380.522 144.335)" fill="#fff"/>
        </g>
      </g>
      <g id="Group_11" data-name="Group 11">
        <path id="Path_16" data-name="Path 16" d="M407.109,181.636V313.513H187.365V181.636l109.872,65.94Z" fill="url(#linear-gradient-3)"/>
        <path id="Path_17" data-name="Path 17" d="M187.365,313.513l100.649-72.335a15.8,15.8,0,0,1,18.447,0L407.11,313.513Z" fill="url(#linear-gradient-4)"/>
      </g>
      <path id="Path_18" data-name="Path 18" d="M330.78,160.038H264.454a1.759,1.759,0,0,1-1.751-1.755h0a1.759,1.759,0,0,1,1.751-1.755H330.78a1.759,1.759,0,0,1,1.751,1.755h0A1.758,1.758,0,0,1,330.78,160.038Z" fill="#fff"/>
      <path id="Path_19" data-name="Path 19" d="M347.865,167.081h-100.5a1.758,1.758,0,0,1-1.751-1.755h0a1.758,1.758,0,0,1,1.751-1.755h100.5a1.758,1.758,0,0,1,1.751,1.755h0A1.758,1.758,0,0,1,347.865,167.081Z" fill="#fff"/>
      <g id="Group_14" data-name="Group 14">
        <path id="Path_20" data-name="Path 20" d="M334.832,188.926H262.12a1.272,1.272,0,0,1-1.267-1.27h0a1.272,1.272,0,0,1,1.267-1.27h72.712a1.272,1.272,0,0,1,1.267,1.27h0A1.272,1.272,0,0,1,334.832,188.926Z" fill="#fff"/>
        <g id="Group_12" data-name="Group 12">
          <path id="Path_21" data-name="Path 21" d="M269.422,195.559h-20.5a1.272,1.272,0,0,1-1.267-1.27h0a1.272,1.272,0,0,1,1.267-1.27h20.5a1.272,1.272,0,0,1,1.267,1.27h0A1.272,1.272,0,0,1,269.422,195.559Z" fill="#fff"/>
          <path id="Path_22" data-name="Path 22" d="M300.341,195.559H275.572a1.272,1.272,0,0,1-1.267-1.27h0a1.272,1.272,0,0,1,1.267-1.27h24.769a1.272,1.272,0,0,1,1.267,1.27h0A1.272,1.272,0,0,1,300.341,195.559Z" fill="#fff"/>
          <path id="Path_23" data-name="Path 23" d="M348.032,195.559H305.213a1.272,1.272,0,0,1-1.267-1.27h0a1.272,1.272,0,0,1,1.267-1.27h42.819a1.272,1.272,0,0,1,1.267,1.27h0A1.272,1.272,0,0,1,348.032,195.559Z" fill="#fff"/>
        </g>
        <g id="Group_13" data-name="Group 13">
          <path id="Path_24" data-name="Path 24" d="M300.5,203.272H260.678a1.272,1.272,0,0,1-1.267-1.27h0a1.272,1.272,0,0,1,1.267-1.27H300.5a1.272,1.272,0,0,1,1.267,1.27h0A1.272,1.272,0,0,1,300.5,203.272Z" fill="#fff"/>
          <path id="Path_25" data-name="Path 25" d="M336.274,203.272H304.906a1.272,1.272,0,0,1-1.267-1.27h0a1.272,1.272,0,0,1,1.267-1.27h31.368a1.272,1.272,0,0,1,1.267,1.27h0A1.272,1.272,0,0,1,336.274,203.272Z" fill="#fff"/>
        </g>
      </g>
      <path id="Path_26" data-name="Path 26" d="M311.693,218.953a50.494,50.494,0,0,1-7.659,5.172,6.264,6.264,0,0,0,.384-2.126c-.048-.913-.776-1.315-1.5-1.694-.18-.094-.349-.193-.516-.293a.931.931,0,0,0,.241-1.083.785.785,0,0,0-1.462.06,1.176,1.176,0,0,0-.1.346.878.878,0,0,1-.284-.224c.444-.831.862-1.677,1.247-2.542a.474.474,0,0,0-.179-.542,1.477,1.477,0,0,0-2.027.28,2.736,2.736,0,0,0-.164,2.636c.02.057.043.114.067.171q-.849,1.535-1.839,2.985c-.061-.062-.124-.124-.186-.185a3.993,3.993,0,0,1-.514-.62,9.034,9.034,0,0,0,.567-2.479.473.473,0,0,0-.673-.455,2,2,0,0,0-1.25,2.162,2.7,2.7,0,0,0,.289.906,8.262,8.262,0,0,1-.711,1.25.439.439,0,0,0,.16.65,6.554,6.554,0,0,1-1.351,2.663c-.546.571-1.564,1-2.229.326a2.838,2.838,0,0,1-.532-1.713,31.291,31.291,0,0,1-.2-4.256,6.509,6.509,0,0,1,.323-1.972c.141-.391.338-.984.528-.31a3.721,3.721,0,0,1-.069,1.18.467.467,0,0,0,.93.072c.07-.7.385-2.183-.41-2.625-.659-.366-1.266.159-1.571.708-1.1,1.977-.661,4.692-.5,6.839.132,1.713.771,3.815,2.954,3.27,2.053-.512,2.808-3.108,3.281-4.894a.472.472,0,0,0-.014-.3l.025-.044c.084.086.17.171.257.257.121.108.237.221.349.339q-.323.45-.66.891a.475.475,0,0,0,.036.57,1.093,1.093,0,0,0,1.909-.81,1.553,1.553,0,0,0-.156-.641q.974-1.4,1.817-2.888a1.464,1.464,0,0,0,1.12.45c.031,0,.062-.006.094-.009a3.527,3.527,0,0,0,.813.62,5.358,5.358,0,0,1,.809.437c.443.364.312.777.214,1.294a20.6,20.6,0,0,1-.541,2.017,4.228,4.228,0,0,0-2.181,2.31,2.358,2.358,0,0,0,.813,2.642.471.471,0,0,0,.7-.233c.531-1.306,1.008-2.632,1.419-3.981.013-.042.027-.086.04-.129.83-.472,1.7-.889,2.517-1.375a47.816,47.816,0,0,0,6.185-4.382C312.77,219.271,312.155,218.568,311.693,218.953Zm-11.334-1.246c-.008-.374.189-1.059.619-1.051q-.291.632-.6,1.252C300.367,217.841,300.361,217.773,300.359,217.707Zm1.184,10.8c-.392-.737.17-1.646.811-2.247Q301.978,227.4,301.544,228.511Z" fill="#c9d450"/>
    </g>
    <g id="Group_16" data-name="Group 16" opacity="0.5">
      <path id="Path_27" data-name="Path 27" d="M293.31,73.485l9.473,20.951L267.872,110.3,258.4,89.347l22.192,2.545Z" fill="#cde0fb"/>
      <path id="Path_28" data-name="Path 28" d="M258.4,89.347,293.31,73.485,282.873,91.12a3.874,3.874,0,0,1-4.008,1.844Z" fill="#b1cff2"/>
    </g>
    <g id="Group_17" data-name="Group 17" opacity="0.5">
      <path id="Path_29" data-name="Path 29" d="M88.069,210.291l4.983,13.4L70.73,232.031l-4.983-13.4L79.4,221.161Z" fill="#cde0fb"/>
      <path id="Path_30" data-name="Path 30" d="M65.747,218.635l22.322-8.344-7.222,10.489a2.407,2.407,0,0,1-2.563.972Z" fill="#b1cff2"/>
    </g>
    <g id="Group_18" data-name="Group 18" opacity="0.5">
      <path id="Path_31" data-name="Path 31" d="M470.329,130.558l-7,26.3-43.831-11.725,7-26.3,18.414,19.015Z" fill="#cde0fb"/>
      <path id="Path_32" data-name="Path 32" d="M426.5,118.833l43.831,11.725-22.75,8.3a4.581,4.581,0,0,1-5.049-1.324Z" fill="#b1cff2"/>
    </g>
    <g id="Group_21" data-name="Group 21">
      <g id="Group_19" data-name="Group 19">
        <path id="Path_33" data-name="Path 33" d="M78.451,269.522h0c-1.059,0-2.087-.018-3.055-.044a.2.2,0,0,1,.011-.408c.965.027,1.989.042,3.045.044a.2.2,0,0,1,0,.408Zm3.054-.023a.2.2,0,0,1,0-.408c.977-.016,2-.042,3.051-.077a.2.2,0,0,1,.21.2.2.2,0,0,1-.2.21c-1.05.035-2.078.06-3.057.077Zm-9.152-.153h-.013c-1.076-.065-2.1-.149-3.049-.25a.2.2,0,0,1,.043-.405c.942.1,1.961.185,3.031.249a.2.2,0,0,1-.012.407Zm15.259-.046a.2.2,0,0,1-.009-.407c.979-.046,2-.1,3.048-.159a.206.206,0,0,1,.215.192.2.2,0,0,1-.191.215c-1.045.06-2.072.114-3.053.16Zm6.1-.351a.2.2,0,0,1-.013-.407q1.5-.1,3.045-.22a.2.2,0,0,1,.031.406q-1.544.118-3.048.22Zm-27.418-.276a.194.194,0,0,1-.036,0,23.965,23.965,0,0,1-2.99-.717.2.2,0,0,1,.123-.389,23.55,23.55,0,0,0,2.939.7.2.2,0,0,1-.036.4Zm33.509-.188a.2.2,0,0,1-.017-.407q1.505-.127,3.041-.267a.2.2,0,0,1,.037.406q-1.536.14-3.044.267Zm6.083-.553a.2.2,0,0,1-.019-.407q1.507-.147,3.038-.3a.2.2,0,0,1,.042.406q-1.531.158-3.04.3Zm6.075-.625a.2.2,0,0,1-.022-.407q1.509-.163,3.034-.336a.2.2,0,0,1,.046.405q-1.526.172-3.036.336Zm-51.38-.638a.2.2,0,0,1-.12-.039,3.885,3.885,0,0,1-1.264-1.447,8.968,8.968,0,0,1-.452-1.153.2.2,0,1,1,.388-.121,8.526,8.526,0,0,0,.432,1.1A3.48,3.48,0,0,0,60.7,266.3a.2.2,0,0,1-.12.369Zm57.448-.048a.2.2,0,0,1-.023-.406q1.51-.178,3.031-.362a.2.2,0,0,1,.049.4q-1.521.185-3.033.362Zm6.063-.737a.2.2,0,0,1-.025-.406q1.506-.189,3.018-.384a.2.2,0,0,1,.052.4q-1.513.2-3.02.384Zm6.042-.779a.2.2,0,0,1-.026-.406q1.513-.2,3.027-.406a.2.2,0,0,1,.055.4q-1.515.205-3.029.406Zm6.06-.822a.2.2,0,0,1-.028-.406q1.513-.21,3.024-.424a.2.2,0,0,1,.057.4q-1.511.214-3.025.424Zm6.047-.856a.2.2,0,0,1-.029-.406q1.514-.218,3.021-.44a.2.2,0,0,1,.059.4q-1.507.221-3.022.44Zm6.043-.887a.2.2,0,0,1-.03-.406q1.516-.226,3.019-.455a.2.2,0,0,1,.061.4q-1.5.229-3.02.455Zm6.038-.916a.2.2,0,0,1-.031-.405q1.517-.234,3.017-.469a.2.2,0,0,1,.063.4q-1.5.234-3.018.468Zm-95.583-.464a.209.209,0,0,1-.04,0,.2.2,0,0,1-.159-.24,6.446,6.446,0,0,1,1.363-2.784.2.2,0,1,1,.316.257,6.043,6.043,0,0,0-1.28,2.608A.2.2,0,0,1,58.739,261.157Zm101.618-.479a.2.2,0,0,1-.032-.405q1.519-.241,3.016-.481a.2.2,0,0,1,.064.4q-1.5.24-3.016.481Zm6.031-.968a.2.2,0,0,1-.032-.4l3.014-.493a.2.2,0,0,1,.066.4l-3.015.493Zm6.028-.992a.2.2,0,0,1-.033-.4l3.012-.5a.2.2,0,0,1,.067.4l-3.013.5A.2.2,0,0,1,172.415,258.718Zm6.025-1.014a.2.2,0,0,1-.034-.4q1.532-.26,3.011-.515a.2.2,0,0,1,.069.4l-3.012.515Zm6.022-1.036a.2.2,0,0,1-.034-.4q1.541-.268,3.01-.526a.2.2,0,0,1,.07.4q-1.468.258-3.011.526Zm-122.149-.246a.2.2,0,0,1-.116-.371,19.969,19.969,0,0,1,2.667-1.548.2.2,0,0,1,.178.366,19.626,19.626,0,0,0-2.612,1.516A.2.2,0,0,1,62.313,256.422Zm128.17-.811a.2.2,0,0,1-.035-.4l3.009-.537a.2.2,0,0,1,.071.4l-3.01.537A.2.2,0,0,1,190.482,255.611Zm6.019-1.079a.2.2,0,0,1-.036-.4l3.009-.548a.2.2,0,0,1,.073.4q-1.415.259-3.01.549A.2.2,0,0,1,196.5,254.532Zm-128.738-.839a.2.2,0,0,1-.071-.395c.9-.337,1.881-.664,2.912-.973a.2.2,0,0,1,.116.391c-1.023.306-1.994.631-2.887.964A.2.2,0,0,1,67.763,253.693Zm134.758-.264a.2.2,0,0,1-.037-.4c1.147-.213,2.156-.4,3.012-.562a.2.2,0,0,1,.075.4c-.857.161-1.865.35-3.013.562A.192.192,0,0,1,202.521,253.429Zm6.029-1.134a.2.2,0,0,1-.038-.4l.348-.067a.209.209,0,0,1,.249.2c0,.169-.02.173-.521.269A.2.2,0,0,1,208.551,252.3Zm-134.938-.371a.2.2,0,0,1-.048-.4c.951-.234,1.957-.46,2.992-.673a.2.2,0,0,1,.082.4c-1.03.212-2.031.437-2.977.669A.2.2,0,0,1,73.613,251.925Zm5.99-1.238a.2.2,0,0,1-.034-.4c.975-.168,1.993-.33,3.026-.48a.2.2,0,0,1,.058.4c-1.029.15-2.044.31-3.015.478Zm6.053-.882a.2.2,0,0,1-.024-.406c1-.121,2.027-.234,3.045-.335a.2.2,0,0,1,.04.406c-1.015.1-2.037.213-3.036.334Zm6.09-.6a.2.2,0,0,1-.015-.407c1.889-.146,3.065-.2,3.077-.2a.2.2,0,0,1,.212.2.2.2,0,0,1-.195.212c-.011,0-1.181.05-3.063.2Z" fill="#afcdfb"/>
      </g>
      <g id="Group_20" data-name="Group 20">
        <path id="Path_34" data-name="Path 34" d="M215.348,263.033,240.4,248.8l-22.852,1.354,1.764,3.869-4.721,5.242Z" fill="#afcdfb"/>
        <path id="Path_35" data-name="Path 35" d="M240.4,248.8l-26.251,4.823-19.119,13.311Z" fill="#fff"/>
        <path id="Path_36" data-name="Path 36" d="M217.546,250.155,240.4,248.8l-23.9-7.022Z" fill="#fff"/>
      </g>
    </g>
    <g id="Group_23" data-name="Group 23">
      <g id="Group_22" data-name="Group 22">
        <path id="Path_37" data-name="Path 37" d="M350.851,76.048,379.29,80.56,360.573,67.347l-1.025,4.128-6.95,1.152Z" fill="#afcdfb"/>
        <path id="Path_38" data-name="Path 38" d="M379.29,80.56,355.759,67.938,332.531,66.41Z" fill="#fff"/>
        <path id="Path_39" data-name="Path 39" d="M360.573,67.347,379.29,80.56,364.956,60.138Z" fill="#fff"/>
      </g>
    </g>
    <path id="Path_40" data-name="Path 40" d="M511.226,313.344H492.064c-1.027-.873.71-2.856,2.526-2.989a11.173,11.173,0,0,1,2.925.347c.264-3.511,1.769-19.294,7.445-18.66,6.381.71,0,6.95-1.8,10.645a88,88,0,0,0-3.39,8.513c.518.112,1.055.223,1.6.324.846-2.6,3.993-11.36,7.995-10.85,4.7.6,2.81,4.108-.52,6.192-2.443,1.533-5.444,3.711-6.869,4.763a20.328,20.328,0,0,0,3.747.3C509,311.853,510.6,312.822,511.226,313.344Z" fill="#82b378"/>
    <g id="Group_24" data-name="Group 24">
      <path id="Path_41" data-name="Path 41" d="M81.781,313.735s-7.284-20.052-12.4-18.343S81.781,313.735,81.781,313.735Z" fill="#82b378"/>
      <path id="Path_42" data-name="Path 42" d="M78.992,313.735c-.62,0-12.243-12.091-13.018-8.926S78.992,313.735,78.992,313.735Z" fill="#82b378"/>
      <path id="Path_43" data-name="Path 43" d="M91.389,313.735s-4.807-4.418-10.893-3.268-8.685,2.41-12.508,1.539a5.652,5.652,0,0,0-5.775,1.729Z" fill="#82b378"/>
    </g>
  </g>
</svg>
